<svg xmlns="http://www.w3.org/2000/svg" viewBox="194.6 46.9 295.6 882.1">
  <path fill="#FFF" d="M1 336V1h490v980H1V336m209 411-1 6v142c2 22 20 38 41 37h184l9-1c18-3 31-20 31-40V750a44 44 0 0 1 0-6l1-11v157l2 13c6 18 21 29 38 28h1l1 1z"/>
  <path fill="#2aa898" d="M474 751v140c0 20-13 37-31 40l-9 1-143-1v-1c-10-17-15-35-15-55V755c0-3 1-4 5-4h115v124c0 8 0 8 8 8h41c4 0 5-1 5-6V751h24z"/>
  <path fill="#1f7a6f" d="M290 751h-9c-4 0-5 1-5 4v120c0 20 5 38 15 55v1l-42 1-2-2c-16-5-27-23-27-40V757l-1-6 1-6h14l40-1h2l13 1 1 6m-13-4s0-1 0 0z"/>
  <path fill="#c8f0e8" d="m289 745-13-1-1-2-1-40v-11h200l1 12a962 962 0 0 0-2 42v-1h-1l-22 1h-55l-2-1h-1l-5 1h-98m109-41v30c0 4 1 6 5 6h41l3-3 1-36-3-4-11-1h-30c-6 0-6 0-6 8z"/>
  <path fill="#a0dcd0" d="m209 413 1-53h64v53a5566 5566 0 0 1-65 0z"/>
  <path fill="#5a7a7a" d="M301 70v-5h18v-9h44l1 9h18v37l-6 1h-58c-7 0-11-5-11-12V71l-1-5-5 4z"/>
  <path fill="#368888" d="M220 691h-11l1-271h10v271z"/>
  <path fill="#2d6a6a" d="m276 201 12-1 12-1 34 1v5c1 5-2 8-7 9-12 3-22 8-32 16-6 5-12 10-14 18h-54l3-7c9-15 20-27 36-34l10-6z"/>
  <path fill="#368888" d="m219 751 1 6v133c0 17 11 35 27 40l2 1c-20 2-38-14-40-36v-5l1-138 9-1z"/>
  <path fill="#5a7a7a" d="M371 67h25v13c-5-8-12-11-21-10h-35c0 6 1 11 5 13s8 4 13 4h38v20l-9-1c2-4 8-4 7-8l-12 1h-39c-12 0-17-5-18-17v-9l-2 7c-4 9 0 20 9 24l1 3h-12V66h25l25 1Z"/>
  <path fill="#4a8a8a" d="m301 70 5-4 1 5v20c0 7 4 12 11 12h58l6-1v3l-5 5h-13l-1 12h-37l-6 1-1-13h-14l-4-5V70z"/>
  <path fill="#368888" d="m220 359-10 1-1-86c1-9 4-18 7-27l10 1c-2 10-5 19-6 29v82z"/>
  <path fill="#6a9a9a" d="M298 130c0-3 1-3 3-3h15l4-3c0 3 2 3 4 3h32l8-1 21 1-1 14h-3c-2-2-3-3-5-3h-73v-8h-5z"/>
  <path fill="#4a7a7a" d="M339 88V74l56 1-2 8c0 5-2 5-6 5h-48Z"/>
  <path fill="#2d6565" d="m278 92-3-3h-9c-4 0-6-2-6-5 0-4 2-6 6-6h49c4 0 7 2 6 6 0 3-2 5-6 5h-9l-3 3h-25Z" style="transform-box:fill-box;transform-origin:50% 50%" transform="rotate(-90 0 0)"/>
  <path fill="#368888" d="m300 199-12 1c7-5 10-11 10-20l1-38h11l-1 13v29c0 7-3 12-9 15z"/>
  <path fill="#3a7474" d="m226 248-10-1c11-26 31-42 60-46l-10 6c-16 7-27 19-36 34l-3 7h-1z"/>
  <path fill="#3a5a5a" d="m326 90 48-1c4 0 6 0 6-5l2-8 7-1-1 19h-62v-4Z"/>
  <path fill="#4a8a8a" d="M310 141h-11l-1-10 5-1v8h73c2 0 3 1 5 3h-71z"/>
  <path fill="#5a7a7a" d="m364 126-8 1h-32c-2 0-4 0-4-3v-1l6-1h37l1 4z"/>
  <path fill="#1f7a6f" d="M450 745h24v6h-24v-6z"/>
  <path fill="#4a8a8a" d="M292 94h24l1-18-24 5-1 13Z" style="transform-box:fill-box;transform-origin:50% 50%" transform="rotate(-90 0 0)"/>
  <path fill="#2d6a6a" d="M218 420h-8l-1-7h9v7Zm0 331-8 1v-7h8v6Zm258 0h-9l-1-6h10v6Z"/>
  <path fill="#1f7a6f" d="M210 745v1l-1-1h1z"/>
  <path fill="#3a7474" d="M450 751v126c0 5-1 6-5 6h-41c-8 0-8 0-8-8V751h54z"/>
  <path fill="#228282" d="M289 745a3082 3082 0 0 1 98 0l-3 6h-94l-1-6z"/>
  <path fill="#2d6565" d="M450 751a2159 2159 0 0 1-55 0v-6h55v6z"/>
  <path fill="#1f7a6f" d="M395 745v6h-11l3-6h5l1-1 2 1m-1 2s-1 0 0 0z"/>
  <path fill="#228282" d="M277 747c0-1 0 0 0 0z"/>
  <path fill="#2aa898" d="M396 691H276a34984 34984 0 0 1 1-271h119v271z"/>
  <path fill="#228282" d="M276 420v271h-56V420h56z"/>
  <path fill="#3a7474" d="M396 691V420h54v271h-54z"/>
  <path fill="#2d6565" d="M474 420v271h-24a50944 50944 0 0 1 1-271h23z"/>
  <path fill="#d8f3ed" d="M398 703c0-7 0-7 6-7h30l11 1 3 4-1 36-3 3h-41c-4 0-5-2-5-6v-31zm75 41h-1 1zm-80 0h-1 1z"/>
  <path fill="#228282" d="M274 413h3v7h-56l-1-6 54-1z"/>
  <path fill="#f8fcfb" d="m475 371-1-11v-79l-1-14-7-20-1-4a72 72 0 0 0-61-42l-12-3c-5-5-7-10-7-17v-54l-21-1v-16h15l3-1V98l62-1 1 11h12l9 1v96z"/>
  <path fill="#4a8a8a" d="M386 105h-53l-2-2c-9-4-13-15-9-24l2-7v9c1 12 6 17 18 17h39l12-1c1 4-5 4-7 8Z"/>
  <path fill="#6a9a9a" d="M379 110h-2l5-5v4l-3 1z"/>
  <path fill="#2aa898" d="M334 200v-58l47-1h3l1 40c0 7 2 12 7 17l-11 2h-47z"/>
  <path fill="#228282" d="M394 747c-1 0 0 0 0 0zM277 420v-6a1480 1480 0 0 1 119-1v7H277zm174 0-1-6 23-1 1 7h-23z"/>
  <path fill="#4a7a7a" d="M396 360V257c0-5 1-6 6-6h43c4 0 5 1 5 5v103l-54 1z"/>
  <path fill="#d8f3ed" d="M423 365h20c3 0 4 1 4 3l1 35-2 5h-35c-13 0-13 0-13-13v-23c0-7 0-7 7-7h18z"/>
  <path fill="#228282" d="m277 359-3 1h-53l-1-83c1-10 4-19 6-29h54c-3 9-4 18-4 27v74l1 10z"/>
  <path fill="#2aa898" d="m466 247 7 20 1 14v78h-23l-1-103c0-4-1-5-5-5h-43c-5 0-6 1-6 6v102l-18 1H277l-1-11v-74c0-9 1-18 4-27h156l30-1z"/>
  <path fill="#3a5a5a" d="m466 247-30 1H281c2-8 8-13 14-18 10-8 20-13 32-16 5-1 8-4 7-9v-5h47l11-2 12 3c29 2 48 17 61 42l1 4z"/>
  <path fill="#228282" d="M310 142h23l1 58-34-1c6-3 9-8 9-15v-29l1-13z"/>
</svg>
