<svg xmlns="http://www.w3.org/2000/svg" viewBox="0 0 980 980"><path fill="#FFF" d="M1 336V1h980v980H1V336m209 411-1 6v142c2 22 20 38 41 37h184l9-1c18-3 31-20 31-40V750a44 44 0 0 1 0-6l1-11 33 1v157l2 13c6 18 21 29 38 28h187c8 0 15-2 21-7 12-8 17-20 17-35V279c0-11-2-21-7-32-8-18-20-32-38-40-11-6-23-6-35-8-7-5-9-11-9-19v-53h-21v-16l14-1c7 1 3-4 4-8V65l-18-1-1-8h-43l-2 9h-17v6l-2 7-77-1-1-9-25-1v-4l3-2h9c4 0 6-2 6-5 1-4-2-6-6-6h-49c-4 0-6 2-6 6 0 3 2 5 6 5h9l3 4-1 2h-24l-1 11h-7l-55-1V65h-18l-1-9h-44v9h-18v41c0 2-1 6 5 4h13l1 13-1 2-3 2h-15c-2 0-3 0-3 4v49c0 9-3 15-11 20l-12 1c-28 4-48 20-59 47-3 8-6 17-7 26v472l1 1z"/><path fill="#8891a5" d="M474 751v140c0 20-13 37-31 40l-9 1-143-1v-1c-10-17-15-35-15-55V755c0-3 1-4 5-4h115v124c0 8 0 8 8 8h41c4 0 5-1 5-6V751h24zm299 0v139c0 15-5 27-17 35-6 5-13 7-21 7H591c-11-18-16-37-16-57V758c0-7 0-7 7-7h113v126c0 5 1 6 6 6h41c7 1 7 1 7-5V751h24zm-7-503c5 10 7 20 7 31l-1 80h-23V256c0-4-1-5-5-5h-43c-5 0-6 1-6 6l-1 103a25483 25483 0 0 1-119-1v-91c0-6 3-13 4-20h187z"/><path fill="#757e95" d="M695 751H582c-7 0-7 0-7 7v117c0 20 5 39 16 56h-44c-6-4-13-7-18-13-8-10-10-21-10-33V745h55l2-1h1l90 1h28v6z"/><path fill="#6a7590" d="M290 751h-9c-4 0-5 1-5 4v120c0 20 5 38 15 55v1l-42 1-2-2c-16-5-27-23-27-40V757l-1-6 1-6h14l40-1h2l13 1 1 6m-13-4s0-1 0 0z"/><path fill="#dce3ed" d="m289 745-13-1-1-2-1-40v-11h200l1 12a962 962 0 0 0-2 42v-1h-1l-22 1h-55l-2-1h-1l-5 1h-98m109-41v30c0 4 1 6 5 6h41l3-3 1-36-3-4-11-1h-30c-6 0-6 0-6 8zm297 41h-28l-90-1h-3v-53h199v53l-24 1v-1h-4a2099 2099 0 0 1-50 0v1m9-48h-7v38c0 4 1 5 5 5h39c5 0 6-2 6-6l-1-11v-23l-3-4-39 1m67 46s0 1 0 0zm-22-383h23l1 53H576l-2-1v-52l1-1 19 1h155m-52 12v32c0 3 0 4 3 4h42c4 0 5-2 5-6l-1-32c1-4 0-5-4-5h-40c-4 0-6 2-5 7z"/><path fill="#4a5568" d="m766 247-87 1h-99l8-12c9-10 22-16 34-21 11-4 11-4 12-15h59c12 1 24 1 35 7 18 8 30 22 38 40z"/><path fill="#8891a5" d="M773 691h-24l1-271h23v271z"/><path fill="#b5bdce" d="M574 691v53a2303 2303 0 0 1-66 1v-12a7946 7946 0 0 0 1-42h65zm-300 1v10l1 41-1 1-40 1h-25v-53l11-1 54 1z"/><path fill="#c0c9d8" d="m209 413 1-53h64v53a5566 5566 0 0 1-65 0z"/><path fill="#6a7590" d="M301 70v-5h18v-9h44l1 9h18v37l-6 1h-58c-7 0-11-5-11-12V71l-1-5-5 4z"/><path fill="#8891a5" d="M693 200a3655 3655 0 0 1-60 0v-59h51v39c0 8 2 14 9 20z"/><path fill="#7a8599" d="M220 691h-11l1-271h10v271z"/><path fill="#5a6578" d="m276 201 12-1 12-1 34 1v5c1 5-2 8-7 9-12 3-22 8-32 16-6 5-12 10-14 18h-54l3-7c9-15 20-27 36-34l10-6z"/><path fill="#7a8599" d="M519 751v134c0 12 2 23 10 33 5 6 12 9 18 13-16 2-31-9-37-27l-2-13 1-140h10z"/><path fill="#757e95" d="m219 751 1 6v133c0 17 11 35 27 40l2 1c-20 2-38-14-40-36v-5l1-138 9-1z"/><path fill="#6a7590" d="M495 68h25a7766 7766 0 0 0 0 13c-5-8-12-11-21-10h-35c0 6 1 11 5 13s8 4 13 4h38v20l-9-1c2-4 8-4 7-8l-12 1h-39c-12 0-17-5-18-17v-9l-2 7c-4 9 0 20 9 24l1 3h-12V67h25l25 1z"/><path fill="#8891a5" d="m301 70 5-4 1 5v20c0 7 4 12 11 12h58l6-1v3l-5 5h-13l-1 12h-37l-6 1-1-13h-14l-4-5V70zm375 40-13 1-1 11-1 1-39-1h-4v-12h-15l-3-4V92a1273 1273 0 0 0 0-22l6-1v23c0 7 4 11 11 11h60l-1 7z"/><path fill="#757e95" d="m220 359-10 1-1-86c1-9 4-18 7-27l10 1c-2 10-5 19-6 29v82z"/><path fill="#7a8599" d="m599 78 1 14h-80a136 136 0 0 1 0-11l1-3h78z"/><path fill="#6a7590" d="M508 703v30h-34l1-30h33z"/><path fill="#9aa5ba" d="m661 123 1-1 1 5h21v14h-4c-2-2-3-3-5-3h-73v-8l-5 1c0-4 2-4 4-4h17v-5h4l3 5h36v-4zm-363 7c0-3 1-3 3-3h15l4-3c0 3 2 3 4 3h32l8-1 21 1-1 14h-3c-2-2-3-3-5-3h-73v-8h-5z"/><path fill="#7a8599" d="M382 92V78l56 1-2 8c0 5-2 5-6 5h-48z"/><path fill="#5a6578" d="m470 64-3-3h-9c-4 0-6-2-6-5 0-4 2-6 6-6h49c4 0 7 2 6 6 0 3-2 5-6 5h-9l-3 3h-25z"/><path fill="#757e95" d="m300 199-12 1c7-5 10-11 10-20l1-38h11l-1 13v29c0 7-3 12-9 15z"/><path fill="#6a7590" d="m226 248-10-1c11-26 31-42 60-46l-10 6c-16 7-27 19-36 34l-3 7h-1z"/><path fill="#9aa5ba" d="M663 65h18v38h-4V81c0-8-3-12-12-12h-59v-4h57z"/><path fill="#4a5568" d="m382 93 48-1c4 0 6 0 6-5l2-8 7-1-1 19h-62v-4z"/><path fill="#6a7590" d="M663 65h-45l1-9h43l1 9z"/><path fill="#8891a5" d="M310 141h-11l-1-10 5-1v8h73c2 0 3 1 5 3h-71z"/><path fill="#6a7590" d="m364 126-8 1h-32c-2 0-4 0-4-3v-1l6-1h37l1 4z"/><path fill="#676e7e" d="M773 420h-24v-7h24v7z"/><path fill="#6a7590" d="M749 745h24v6h-24v-6zm-299 0h22l1-1v1l1 1v5h-24v-6z"/><path fill="#8891a5" d="M470 64h24l1 4-24-1-1-3z"/><path fill="#5a6578" d="M220 420h-10l-1-7h11a33 33 0 0 1 0 7zm-1 331-9 1v-7h10l-1 6zm300 0h-10l-1-6h11v6z"/><path fill="#6a7590" d="M677 103h4c-1 3 3 8-5 7l1-7zm-71-38v4l-6 1v-5h6z"/><path fill="#9aa5ba" d="m301 105 4 5c-5 2-4-2-4-5z"/><path fill="#6a7590" d="M210 745v1l-1-1h1z"/><path fill="#8891a5" d="m474 746-1-1h1v1z"/><path fill="#6a7590" d="M450 751v126c0 5-1 6-5 6h-41c-8 0-8 0-8-8V751h54z"/><path fill="#676e7e" d="M289 745a3082 3082 0 0 1 98 0l-3 6h-94l-1-6z"/><path fill="#5a6578" d="M450 751a2159 2159 0 0 1-55 0v-6h55v6z"/><path fill="#6a7590" d="M395 745v6h-11l3-6h5l1-1 2 1m-1 2s-1 0 0 0z"/><path fill="#6a7590" d="M749 751v127c0 6 0 6-7 5h-41c-5 0-6-1-6-6V751h54z"/><path fill="#676e7e" d="m575 359-1 1-55-1v-73l3-27 3-11h54c-1 7-4 14-4 20v91z"/><path fill="#7a8599" d="m749 359-54 1V257c0-5 1-6 6-6h43c4 0 5 1 5 5v103z"/><path fill="#5a6578" d="M579 248h-52l1-4c8-17 21-31 40-38l8-5 11-1 12-1a1295 1295 0 0 0 34 1c0 11 0 11-11 15-12 5-25 11-34 21l-8 12h-1z"/><path fill="#8891a5" d="M749 751h-54v-6l2-1 48 1 4-1v7z"/><path fill="#edf2f8" d="M576 744h1-1zm-302 0 1-1 1 1h-2z"/><path fill="#676e7e" d="M277 747c0-1 0 0 0 0z"/><path fill="#8891a5" d="M396 691H276a34984 34984 0 0 1 1-271h119v271z"/><path fill="#676e7e" d="M276 420v271h-56V420h56z"/><path fill="#6a7590" d="M396 691V420h54v271h-54z"/><path fill="#f5f7fa" d="m508 702-32 1-2-12V413l1-11h33v300z"/><path fill="#5a6578" d="M474 420v271h-24a50944 50944 0 0 1 1-271h23z"/><path fill="#edf2f8" d="M398 703c0-7 0-7 6-7h30l11 1 3 4-1 36-3 3h-41c-4 0-5-2-5-6v-31zm75 41h-1 1zm-80 0h-1 1z"/><path fill="#8891a5" d="M695 691H575V420h114l6-1v272z"/><path fill="#676e7e" d="M575 420v271h-56v-51l1-220h55z"/><path fill="#6a7590" d="M695 691V420h54v271h-54z"/><path fill="#edf2f8" d="m705 697 38-1 3 4v23l1 11c0 4-1 6-6 6h-39c-4 0-5-1-5-5v-38h8zm44 47h-4 4zm-52 0h-2 2zm74-1c0 1 0 0 0 0z"/><path fill="#c0c9d8" d="M508 413a1862 1862 0 0 1 1-53l10-1 55 1v52l-55 1h-11z"/><path fill="#edf2f8" d="M697 371c-1-4 1-6 5-6h40c4 0 5 1 4 5l1 32c0 4-1 6-5 6h-42c-3 0-3-1-3-4v-33z"/><path fill="#676e7e" d="m695 419-6 1H576v-7h119v6z"/><path fill="#4a5568" d="M576 413v7h-1a77595 77595 0 0 1-56 0v-7h57z"/><path fill="#5a6578" d="M695 419v-5l54-1v7h-54v-1z"/><path fill="#7a8599" d="M519 420v271h-10a18104 18104 0 0 1 0-271h10z"/><path fill="#dce3ed" d="m474 402-1 11H274v-53h200l1 11-1 31m-51-37h-18c-7 0-7 0-7 7v23c0 13 0 13 13 13h35l2-5-1-35c0-2-1-3-4-3h-20z"/><path fill="#676e7e" d="m277 359-3 1h-53l-1-83c1-10 4-19 6-29h54c-3 9-4 18-4 27v74l1 10z"/><path fill="#4a5568" d="M274 413h3v7h-56l-1-6 54-1z"/><path fill="#fafbfc" d="m475 371-1-11v-79l-1-14-7-20-1-4a72 72 0 0 0-61-42l-12-3c-5-5-7-10-7-17v-54l-21-1v-16h15l3-1V98l62-1 1 11h12l54-1 9 1 1-10 25-1 54 1v8c0 3-1 6 3 4h15v17h-17c-2 0-4 0-4 4v48c1 9-2 16-10 21l-11 1c-29 3-48 19-60 44-3 10-7 20-8 29v96l-33 1z"/><path fill="#676e7e" d="m633 200-33-1c7-4 9-11 9-18l1-40h23v59z"/><path fill="#8891a5" d="M633 141h-36v-9l5-2v8h73c2 0 3 1 5 3h-47z"/><path fill="#8891a5" d="m466 247 7 20 1 14v78h-23l-1-103c0-4-1-5-5-5h-43c-5 0-6 1-6 6v102l-18 1H277l-1-11v-74c0-9 1-18 4-27h156l30-1z"/><path fill="#4a5568" d="m466 247-30 1H281c2-8 8-13 14-18 10-8 20-13 32-16 5-1 8-4 7-9v-5h47l11-2 12 3c29 2 48 17 61 42l1 4z"/><path fill="#676e7e" d="M310 142h23l1 58-34-1c6-3 9-8 9-15v-29l1-13z"/><path fill="#9aa5ba" d="M520 81v7h-38c-5 0-9-2-13-4s-5-7-5-13h35c9-1 16 2 21 10z"/><path fill="#8891a5" d="M511 107h-53l-2-2c-9-4-13-15-9-24l2-7v9c1 12 6 17 18 17h39l12-1c1 4-5 4-7 8z"/><path fill="#4a5568" d="M600 97h-80v-4l79-1 1 5z"/><path fill="#9aa5ba" d="M379 110h-2l5-5v4l-3 1z"/><path fill="#6a7590" d="M606 69h59c9 0 12 4 12 12v21l-60 1c-7 0-11-4-11-11V69zm55 54v4h-36l-3-5 39 1z"/><path fill="#9aa5ba" d="M603 110c-4 2-3-1-3-4l3 4z"/><path fill="#8891a5" d="M334 200v-58l47-1h3l1 40c0 7 2 12 7 17l-11 2h-47z"/><path fill="#676e7e" d="M394 747c-1 0 0 0 0 0z"/><path fill="#7a8599" d="m509 360-1-86c1-9 5-19 8-29l9 3-3 11-3 27v73l-10 1z"/><path fill="#6a7590" d="m525 248-9-3c12-25 31-41 60-44l-8 5c-19 7-32 21-40 38l-1 3-2 1z"/><path fill="#757e95" d="m597 142 12-1v40c0 7-2 14-10 18l-12 1c8-5 11-12 10-21v-37z"/><path fill="#676e7e" d="M277 420v-6a1480 1480 0 0 1 119-1v7H277z"/><path fill="#757e95" d="M396 420v-6l54-1v7h-54z"/><path fill="#6a7590" d="M475 371h33v30l-33 1v-31z"/><path fill="#676e7e" d="m451 420-1-6 23-1 1 7h-23z"/><path fill="#5a6578" d="M519 420h-10l-1-6 11-1v7z"/><path fill="#7a8599" d="M396 360V257c0-5 1-6 6-6h43c4 0 5 1 5 5v103l-54 1z"/><path fill="#edf2f8" d="M423 365h20c3 0 4 1 4 3l1 35-2 5h-35c-13 0-13 0-13-13v-23c0-7 0-7 7-7h18z"/></svg>
